<mxfile host="app.diagrams.net" modified="2023-03-19T07:48:34.133Z" agent="5.0 (Windows NT 10.0; Win64; x64) AppleWebKit/537.36 (KHTML, like Gecko) Chrome/95.0.4638.69 Safari/537.36" etag="4cF_BwjEpoFtu1Nd2UBn" version="21.0.7" type="github">
  <diagram name="第 1 页" id="LWJoSGkPfl6FPsaIZb4w">
    <mxGraphModel dx="1050" dy="559" grid="1" gridSize="10" guides="1" tooltips="1" connect="1" arrows="1" fold="1" page="1" pageScale="1" pageWidth="827" pageHeight="1169" math="0" shadow="0">
      <root>
        <mxCell id="0" />
        <mxCell id="1" parent="0" />
        <mxCell id="TnlZz4HWznjLwlr_zGEs-8" value="" style="rounded=1;whiteSpace=wrap;html=1;shadow=1;sketch=0;strokeColor=#007FFF;fontSize=20;fontColor=#FFFFFF;fillColor=#FFFFFF;" parent="1" vertex="1">
          <mxGeometry x="30" y="50" width="470" height="80" as="geometry" />
        </mxCell>
        <mxCell id="TnlZz4HWznjLwlr_zGEs-7" value="展现层" style="rounded=1;whiteSpace=wrap;html=1;shadow=1;sketch=0;strokeColor=#007FFF;fontSize=20;fontColor=#FFFFFF;fillColor=#3399FF;" parent="1" vertex="1">
          <mxGeometry x="30" y="50" width="120" height="80" as="geometry" />
        </mxCell>
        <mxCell id="TnlZz4HWznjLwlr_zGEs-9" value="React" style="rounded=1;whiteSpace=wrap;html=1;shadow=1;sketch=0;strokeColor=#d6b656;fontSize=20;fillColor=#fff2cc;" parent="1" vertex="1">
          <mxGeometry x="155" y="60" width="65" height="60" as="geometry" />
        </mxCell>
        <mxCell id="TnlZz4HWznjLwlr_zGEs-10" value="JavaScript" style="rounded=1;whiteSpace=wrap;html=1;shadow=1;sketch=0;strokeColor=#d6b656;fontSize=20;fillColor=#fff2cc;" parent="1" vertex="1">
          <mxGeometry x="230" y="60" width="100" height="60" as="geometry" />
        </mxCell>
        <mxCell id="TnlZz4HWznjLwlr_zGEs-11" value="HTML" style="rounded=1;whiteSpace=wrap;html=1;shadow=1;sketch=0;strokeColor=#d6b656;fontSize=20;fillColor=#fff2cc;" parent="1" vertex="1">
          <mxGeometry x="340" y="60" width="70" height="60" as="geometry" />
        </mxCell>
        <mxCell id="TnlZz4HWznjLwlr_zGEs-12" value="Echart" style="rounded=1;whiteSpace=wrap;html=1;shadow=1;sketch=0;strokeColor=#d6b656;fontSize=20;fillColor=#fff2cc;" parent="1" vertex="1">
          <mxGeometry x="420" y="60" width="70" height="60" as="geometry" />
        </mxCell>
        <mxCell id="TnlZz4HWznjLwlr_zGEs-13" value="" style="shape=singleArrow;whiteSpace=wrap;html=1;arrowWidth=0.4;arrowSize=0.4;fontSize=20;fillColor=#FFFFFF;strokeColor=#007FFF;fontColor=#FFFFFF;rounded=1;shadow=1;sketch=0;rotation=90;" parent="1" vertex="1">
          <mxGeometry x="600" y="140" width="80" height="60" as="geometry" />
        </mxCell>
        <mxCell id="TnlZz4HWznjLwlr_zGEs-16" value="" style="rounded=1;whiteSpace=wrap;html=1;shadow=1;sketch=0;strokeColor=#007FFF;fontSize=20;fontColor=#FFFFFF;fillColor=#FFFFFF;" parent="1" vertex="1">
          <mxGeometry x="30" y="210" width="750" height="180" as="geometry" />
        </mxCell>
        <mxCell id="TnlZz4HWznjLwlr_zGEs-17" value="预处理" style="rounded=1;whiteSpace=wrap;html=1;shadow=1;sketch=0;strokeColor=#007FFF;fontSize=20;fontColor=#FFFFFF;fillColor=#3399FF;" parent="1" vertex="1">
          <mxGeometry x="30" y="210" width="120" height="180" as="geometry" />
        </mxCell>
        <mxCell id="TnlZz4HWznjLwlr_zGEs-18" value="Redis限流" style="rounded=1;whiteSpace=wrap;html=1;shadow=1;sketch=0;strokeColor=#d6b656;fontSize=20;fillColor=#fff2cc;" parent="1" vertex="1">
          <mxGeometry x="160" y="255" width="160" height="90" as="geometry" />
        </mxCell>
        <mxCell id="TnlZz4HWznjLwlr_zGEs-19" value="&lt;p&gt;&lt;span style=&quot;background-color: initial;&quot;&gt;用户鉴权&lt;/span&gt;&lt;/p&gt;&lt;p&gt;&lt;br&gt;&lt;/p&gt;&lt;p&gt;&lt;span style=&quot;background-color: initial;&quot;&gt;&lt;br&gt;&lt;/span&gt;&lt;/p&gt;&lt;p style=&quot;font-size: 15px;&quot;&gt;&lt;span style=&quot;background-color: initial;&quot;&gt;&lt;br&gt;&lt;/span&gt;&lt;/p&gt;" style="rounded=1;whiteSpace=wrap;html=1;shadow=1;sketch=0;strokeColor=#d6b656;fontSize=20;fillColor=#fff2cc;align=center;" parent="1" vertex="1">
          <mxGeometry x="340" y="220" width="430" height="160" as="geometry" />
        </mxCell>
        <mxCell id="TnlZz4HWznjLwlr_zGEs-20" value="AccessKey" style="rounded=1;whiteSpace=wrap;html=1;shadow=1;sketch=0;strokeColor=#d6b656;fontSize=20;fillColor=#fff2cc;" parent="1" vertex="1">
          <mxGeometry x="349" y="270" width="131" height="70" as="geometry" />
        </mxCell>
        <mxCell id="TnlZz4HWznjLwlr_zGEs-21" value="Sign" style="rounded=1;whiteSpace=wrap;html=1;shadow=1;sketch=0;strokeColor=#d6b656;fontSize=20;fillColor=#fff2cc;" parent="1" vertex="1">
          <mxGeometry x="490" y="270" width="130" height="70" as="geometry" />
        </mxCell>
        <mxCell id="TnlZz4HWznjLwlr_zGEs-22" value="" style="shape=singleArrow;whiteSpace=wrap;html=1;arrowWidth=0.4;arrowSize=0.4;fontSize=20;fillColor=#FFFFFF;strokeColor=#007FFF;fontColor=#FFFFFF;rounded=1;shadow=1;sketch=0;rotation=90;" parent="1" vertex="1">
          <mxGeometry x="365" y="400" width="80" height="60" as="geometry" />
        </mxCell>
        <mxCell id="TnlZz4HWznjLwlr_zGEs-31" value="" style="rounded=1;whiteSpace=wrap;html=1;shadow=1;sketch=0;strokeColor=#007FFF;fontSize=20;fontColor=#FFFFFF;fillColor=#FFFFFF;" parent="1" vertex="1">
          <mxGeometry x="30" y="470" width="750" height="230" as="geometry" />
        </mxCell>
        <mxCell id="TnlZz4HWznjLwlr_zGEs-32" value="服务层" style="rounded=1;whiteSpace=wrap;html=1;shadow=1;sketch=0;strokeColor=#007FFF;fontSize=20;fontColor=#FFFFFF;fillColor=#3399FF;" parent="1" vertex="1">
          <mxGeometry x="30" y="470" width="120" height="230" as="geometry" />
        </mxCell>
        <mxCell id="TnlZz4HWznjLwlr_zGEs-36" value="登录服务" style="rounded=1;whiteSpace=wrap;html=1;shadow=1;sketch=0;strokeColor=#d6b656;fontSize=20;fillColor=#fff2cc;" parent="1" vertex="1">
          <mxGeometry x="170" y="490" width="120" height="60" as="geometry" />
        </mxCell>
        <mxCell id="TnlZz4HWznjLwlr_zGEs-37" value="" style="shape=singleArrow;whiteSpace=wrap;html=1;arrowWidth=0.4;arrowSize=0.4;fontSize=20;fillColor=#FFFFFF;strokeColor=#007FFF;fontColor=#FFFFFF;rounded=1;shadow=1;sketch=0;rotation=90;" parent="1" vertex="1">
          <mxGeometry x="190" y="890" width="80" height="60" as="geometry" />
        </mxCell>
        <mxCell id="TnlZz4HWznjLwlr_zGEs-38" value="token" style="rounded=1;whiteSpace=wrap;html=1;shadow=1;sketch=0;strokeColor=#d6b656;fontSize=20;fillColor=#fff2cc;" parent="1" vertex="1">
          <mxGeometry x="630" y="270" width="130" height="70" as="geometry" />
        </mxCell>
        <mxCell id="TnlZz4HWznjLwlr_zGEs-41" value="管理员服务" style="rounded=1;whiteSpace=wrap;html=1;shadow=1;sketch=0;strokeColor=#d6b656;fontSize=20;fillColor=#fff2cc;" parent="1" vertex="1">
          <mxGeometry x="480" y="600" width="120" height="60" as="geometry" />
        </mxCell>
        <mxCell id="TnlZz4HWznjLwlr_zGEs-42" value="工单服务" style="rounded=1;whiteSpace=wrap;html=1;shadow=1;sketch=0;strokeColor=#d6b656;fontSize=20;fillColor=#fff2cc;" parent="1" vertex="1">
          <mxGeometry x="325" y="600" width="120" height="60" as="geometry" />
        </mxCell>
        <mxCell id="TnlZz4HWznjLwlr_zGEs-43" value="统计服务" style="rounded=1;whiteSpace=wrap;html=1;shadow=1;sketch=0;strokeColor=#d6b656;fontSize=20;fillColor=#fff2cc;" parent="1" vertex="1">
          <mxGeometry x="170" y="600" width="120" height="60" as="geometry" />
        </mxCell>
        <mxCell id="TnlZz4HWznjLwlr_zGEs-44" value="账单服务" style="rounded=1;whiteSpace=wrap;html=1;shadow=1;sketch=0;strokeColor=#d6b656;fontSize=20;fillColor=#fff2cc;" parent="1" vertex="1">
          <mxGeometry x="325" y="490" width="120" height="60" as="geometry" />
        </mxCell>
        <mxCell id="TnlZz4HWznjLwlr_zGEs-45" value="桶管理服务" style="rounded=1;whiteSpace=wrap;html=1;shadow=1;sketch=0;strokeColor=#d6b656;fontSize=20;fillColor=#fff2cc;" parent="1" vertex="1">
          <mxGeometry x="480" y="490" width="120" height="60" as="geometry" />
        </mxCell>
        <mxCell id="TnlZz4HWznjLwlr_zGEs-46" value="对象存储服务" style="rounded=1;whiteSpace=wrap;html=1;shadow=1;sketch=0;strokeColor=#d6b656;fontSize=20;fillColor=#fff2cc;" parent="1" vertex="1">
          <mxGeometry x="630" y="490" width="120" height="170" as="geometry" />
        </mxCell>
        <mxCell id="TnlZz4HWznjLwlr_zGEs-48" value="" style="rounded=1;whiteSpace=wrap;html=1;shadow=1;sketch=0;strokeColor=#007FFF;fontSize=20;fontColor=#FFFFFF;fillColor=#FFFFFF;" parent="1" vertex="1">
          <mxGeometry x="30" y="780" width="370" height="100" as="geometry" />
        </mxCell>
        <mxCell id="TnlZz4HWznjLwlr_zGEs-49" value="持久层" style="rounded=1;whiteSpace=wrap;html=1;shadow=1;sketch=0;strokeColor=#007FFF;fontSize=20;fontColor=#FFFFFF;fillColor=#3399FF;" parent="1" vertex="1">
          <mxGeometry x="30" y="780" width="90" height="100" as="geometry" />
        </mxCell>
        <mxCell id="TnlZz4HWznjLwlr_zGEs-50" value="Redis" style="rounded=1;whiteSpace=wrap;html=1;shadow=1;sketch=0;strokeColor=#d6b656;fontSize=20;fillColor=#fff2cc;" parent="1" vertex="1">
          <mxGeometry x="130" y="800" width="60" height="60" as="geometry" />
        </mxCell>
        <mxCell id="TnlZz4HWznjLwlr_zGEs-58" value="RabbitMQ" style="rounded=1;whiteSpace=wrap;html=1;shadow=1;sketch=0;strokeColor=#d6b656;fontSize=20;fillColor=#fff2cc;" parent="1" vertex="1">
          <mxGeometry x="290" y="800" width="90" height="60" as="geometry" />
        </mxCell>
        <mxCell id="TnlZz4HWznjLwlr_zGEs-59" value="MySQL" style="rounded=1;whiteSpace=wrap;html=1;shadow=1;sketch=0;strokeColor=#d6b656;fontSize=20;fillColor=#fff2cc;" parent="1" vertex="1">
          <mxGeometry x="205" y="800" width="70" height="60" as="geometry" />
        </mxCell>
        <mxCell id="TnlZz4HWznjLwlr_zGEs-60" value="" style="rounded=1;whiteSpace=wrap;html=1;shadow=1;sketch=0;strokeColor=#007FFF;fontSize=20;fontColor=#FFFFFF;fillColor=#FFFFFF;" parent="1" vertex="1">
          <mxGeometry x="480" y="770" width="270" height="120" as="geometry" />
        </mxCell>
        <mxCell id="TnlZz4HWznjLwlr_zGEs-61" value="调度" style="rounded=1;whiteSpace=wrap;html=1;shadow=1;sketch=0;strokeColor=#007FFF;fontSize=20;fontColor=#FFFFFF;fillColor=#3399FF;" parent="1" vertex="1">
          <mxGeometry x="480" y="770" width="120" height="120" as="geometry" />
        </mxCell>
        <mxCell id="TnlZz4HWznjLwlr_zGEs-63" value="定时触发" style="rounded=1;whiteSpace=wrap;html=1;shadow=1;sketch=0;strokeColor=#d6b656;fontSize=20;fillColor=#fff2cc;" parent="1" vertex="1">
          <mxGeometry x="620" y="780" width="100" height="50" as="geometry" />
        </mxCell>
        <mxCell id="TnlZz4HWznjLwlr_zGEs-66" value="周期触发" style="rounded=1;whiteSpace=wrap;html=1;shadow=1;sketch=0;strokeColor=#d6b656;fontSize=20;fillColor=#fff2cc;" parent="1" vertex="1">
          <mxGeometry x="620" y="830" width="100" height="50" as="geometry" />
        </mxCell>
        <mxCell id="TnlZz4HWznjLwlr_zGEs-70" value="" style="shape=singleArrow;whiteSpace=wrap;html=1;arrowWidth=0.4;arrowSize=0.4;fontSize=20;fillColor=#FFFFFF;strokeColor=#007FFF;fontColor=#FFFFFF;rounded=1;shadow=1;sketch=0;rotation=-180;" parent="1" vertex="1">
          <mxGeometry x="400" y="800" width="80" height="60" as="geometry" />
        </mxCell>
        <mxCell id="TnlZz4HWznjLwlr_zGEs-71" value="" style="shape=singleArrow;whiteSpace=wrap;html=1;arrowWidth=0.4;arrowSize=0.4;fontSize=20;fillColor=#FFFFFF;strokeColor=#007FFF;fontColor=#FFFFFF;rounded=1;shadow=1;sketch=0;rotation=90;" parent="1" vertex="1">
          <mxGeometry x="575" y="705" width="70" height="60" as="geometry" />
        </mxCell>
        <mxCell id="TnlZz4HWznjLwlr_zGEs-73" value="" style="rounded=1;whiteSpace=wrap;html=1;shadow=1;sketch=0;strokeColor=#007FFF;fontSize=20;fontColor=#FFFFFF;fillColor=#FFFFFF;" parent="1" vertex="1">
          <mxGeometry x="30" y="960" width="750" height="100" as="geometry" />
        </mxCell>
        <mxCell id="TnlZz4HWznjLwlr_zGEs-74" value="存储层" style="rounded=1;whiteSpace=wrap;html=1;shadow=1;sketch=0;strokeColor=#007FFF;fontSize=20;fontColor=#FFFFFF;fillColor=#3399FF;" parent="1" vertex="1">
          <mxGeometry x="30" y="960" width="120" height="100" as="geometry" />
        </mxCell>
        <mxCell id="TnlZz4HWznjLwlr_zGEs-78" value="&lt;font style=&quot;font-size: 43px;&quot;&gt;MinIO&lt;/font&gt;" style="rounded=1;whiteSpace=wrap;html=1;shadow=1;sketch=0;strokeColor=#d6b656;fontSize=20;fillColor=#fff2cc;" parent="1" vertex="1">
          <mxGeometry x="180" y="980" width="560" height="60" as="geometry" />
        </mxCell>
        <mxCell id="TnlZz4HWznjLwlr_zGEs-79" value="" style="shape=singleArrow;whiteSpace=wrap;html=1;arrowWidth=0.4;arrowSize=0.4;fontSize=20;fillColor=#FFFFFF;strokeColor=#007FFF;fontColor=#FFFFFF;rounded=1;shadow=1;sketch=0;rotation=90;" parent="1" vertex="1">
          <mxGeometry x="190" y="710" width="80" height="60" as="geometry" />
        </mxCell>
        <mxCell id="TnlZz4HWznjLwlr_zGEs-80" value="" style="shape=singleArrow;whiteSpace=wrap;html=1;arrowWidth=0.4;arrowSize=0.4;fontSize=20;fillColor=#FFFFFF;strokeColor=#007FFF;fontColor=#FFFFFF;rounded=1;shadow=1;sketch=0;rotation=90;" parent="1" vertex="1">
          <mxGeometry x="575" y="895" width="70" height="60" as="geometry" />
        </mxCell>
        <mxCell id="TnlZz4HWznjLwlr_zGEs-83" value="" style="rounded=1;whiteSpace=wrap;html=1;shadow=1;sketch=0;strokeColor=#007FFF;fontSize=20;fontColor=#FFFFFF;fillColor=#FFFFFF;" parent="1" vertex="1">
          <mxGeometry x="510" y="50" width="290" height="80" as="geometry" />
        </mxCell>
        <mxCell id="TnlZz4HWznjLwlr_zGEs-84" value="调用层" style="rounded=1;whiteSpace=wrap;html=1;shadow=1;sketch=0;strokeColor=#007FFF;fontSize=20;fontColor=#FFFFFF;fillColor=#3399FF;" parent="1" vertex="1">
          <mxGeometry x="510" y="50" width="120" height="80" as="geometry" />
        </mxCell>
        <mxCell id="TnlZz4HWznjLwlr_zGEs-88" value="SDK调用" style="rounded=1;whiteSpace=wrap;html=1;shadow=1;sketch=0;strokeColor=#d6b656;fontSize=20;fillColor=#fff2cc;" parent="1" vertex="1">
          <mxGeometry x="655" y="60" width="115" height="60" as="geometry" />
        </mxCell>
        <mxCell id="TnlZz4HWznjLwlr_zGEs-89" value="" style="shape=singleArrow;whiteSpace=wrap;html=1;arrowWidth=0.4;arrowSize=0.4;fontSize=20;fillColor=#FFFFFF;strokeColor=#007FFF;fontColor=#FFFFFF;rounded=1;shadow=1;sketch=0;rotation=90;" parent="1" vertex="1">
          <mxGeometry x="190" y="140" width="80" height="60" as="geometry" />
        </mxCell>
      </root>
    </mxGraphModel>
  </diagram>
</mxfile>
